<svg style="display:none !important;" xmlns="http://www.w3.org/2000/svg">

    <symbol id="iconCall" viewBox="0 0 1408 1408">
        <g>
            <path d="m1408 1112c0 18-3.3 41.5-10 70.5s-13.7 51.8-21 68.5c-14 33.3-54.7 68.7-122 106-62.7 34-124.7 51-186 51-18 0-35.5-1.2-52.5-3.5s-36.2-6.5-57.5-12.5-37.2-10.8-47.5-14.5-28.8-10.5-55.5-20.5-43-16-49-18c-65.3-23.3-123.7-51-175-83-85.3-52.7-173.5-124.5-264.5-215.5s-162.8-179.2-215.5-264.5c-32-51.3-59.7-109.7-83-175-2-6-8-22.3-18-49s-16.8-45.2-20.5-55.5-8.5-26.2-14.5-47.5-10.2-40.5-12.5-57.5-3.5-34.5-3.5-52.5c0-61.3 17-123.3 51-186 37.3-67.3 72.7-108 106-122 16.7-7.3 39.5-14.3 68.5-21s52.5-10 70.5-10c9.3 0 16.3 1 21 3 12 4 29.7 29.3 53 76 7.3 12.7 17.3 30.7 30 54s24.3 44.5 35 63.5 21 36.8 31 53.5c2 2.7 7.8 11 17.5 25s16.8 25.8 21.5 35.5 7 19.2 7 28.5c0 13.3-9.5 30-28.5 50s-39.7 38.3-62 55-43 34.3-62 53-28.5 34-28.5 46c0 6 1.7 13.5 5 22.5s6.2 15.8 8.5 20.5 7 12.7 14 24 10.8 17.7 11.5 19c50.7 91.3 108.7 169.7 174 235s143.7 123.3 235 174c1.3.7 7.7 4.5 19 11.5s19.3 11.7 24 14 11.5 5.2 20.5 8.5 16.5 5 22.5 5c12 0 27.3-9.5 46-28.5s36.3-39.7 53-62 35-43 55-62 36.7-28.5 50-28.5c9.3 0 18.8 2.3 28.5 7s21.5 11.8 35.5 21.5 22.3 15.5 25 17.5c16.7 10 34.5 20.3 53.5 31s40.2 22.3 63.5 35 41.3 22.7 54 30c46.7 23.3 72 41 76 53 2 4.7 3 11.7 3 21z"/>
        </g>
    </symbol>

    <symbol id="iconCart" viewBox="0 0 20 20">
        <g>
            <path clip-rule="evenodd" d="m6 16c-1.1 0-2 .9-2 2s.9 2 2 2 2-.9 2-2-.9-2-2-2zm-6-16v2h2l3.6 7.6-1.4 2.4c-.1.3-.2.7-.2 1 0 1.1.9 2 2 2h12v-2h-11.6c-.1 0-.2-.1-.2-.2v-.1l.9-1.7h7.4c.8 0 1.4-.4 1.7-1l3.6-6.5c.2-.2.2-.3.2-.5 0-.6-.4-1-1-1h-14.8l-.9-2zm16 16c-1.1 0-2 .9-2 2s.9 2 2 2 2-.9 2-2-.9-2-2-2z" fill-rule="evenodd"/>
        </g>
    </symbol>

    <symbol id="iconAccount" viewBox="0 0 20 20">
        <g>
            <ellipse cx="10" cy="6" rx="5" ry="6"/>
            <path d="m19.8 17.1c-.9-1.8-2.6-3.3-4.8-4.2-.6-.2-1.3-.2-1.8.1-1 .6-2 .9-3.2.9s-2.2-.3-3.2-.9c-.5-.2-1.2-.3-1.8 0-2.2.9-3.9 2.4-4.8 4.2-.7 1.3.4 2.8 1.9 2.8h15.8c1.5 0 2.6-1.5 1.9-2.9z"/>
        </g>
    </symbol>

    <symbol id="iconLogin" viewBox="0 0 16 18">
        <g>
            <path d="m1 10h4.6l-1.3 1.3c-.4.4-.4 1 0 1.4s1 .4 1.4 0l3-3c.1-.1.2-.2.2-.3.1-.2.1-.5 0-.8-.1-.1-.1-.2-.2-.3l-3-3c-.2-.2-.5-.3-.7-.3s-.5.1-.7.3c-.4.4-.4 1 0 1.4l1.3 1.3h-4.6c-.6 0-1 .4-1 1s.4 1 1 1z"/>
            <path d="m3.5 2.9c1.1-.6 2.3-.9 3.5-.9 3.9 0 7 3.1 7 7s-3.1 7-7 7c-1.2 0-2.4-.3-3.5-.9-.5-.3-1.1-.1-1.4.4s-.1 1.1.4 1.4c1.4.7 2.9 1.1 4.5 1.1 5 0 9-4 9-9s-4-9-9-9c-1.6 0-3.1.4-4.5 1.2-.5.3-.6.9-.4 1.4.3.4.9.6 1.4.3z"/>
        </g>
    </symbol>

    <symbol id="iconSoc-tt" viewBox="0 0 447.9 511.9">
        <g>
            <path d="m447.9 209.9c-44 .1-87-13.6-122.8-39.2v178.7c0 89.8-72.8 162.5-162.6 162.5s-162.5-72.9-162.5-162.6 72.8-162.5 162.6-162.5c7.4 0 14.9.5 22.3 1.5v89.9c-39.3-12.4-81.2 9.5-93.6 48.8s9.5 81.2 48.8 93.6 81.2-9.5 93.6-48.8c2.3-7.2 3.4-14.8 3.4-22.4v-349.4h88c-.1 7.4.6 14.9 1.9 22.2 6.2 33 25.7 62 53.9 80.2 19.9 13.1 43.2 20.1 67 20.1z"/>
        </g>
    </symbol>

    <symbol id="iconSoc-fb" viewBox="0 0 768 768">
        <g>
            <path clip-rule="evenodd" d="m674.2 0c51.8 0 93.8 42 93.8 93.8v580.3c0 51.8-42 93.8-93.8 93.8h-159.7v-289.3h99.9l19-123.9h-118.9v-80.4c0-33.9 16.6-67 69.9-67h54.1v-105.5s-49.1-8.4-96-8.4c-97.9 0-161.9 59.4-161.9 166.8v94.5h-109v123.9h108.9v289.4h-286.7c-51.8 0-93.8-42-93.8-93.8v-580.4c0-51.8 42-93.8 93.8-93.8z" fill-rule="evenodd"/>
        </g>
    </symbol>

    <symbol id="iconSoc-ig" viewBox="0 0 49.6 49.6">
        <g>
            <path d="m24.8 11.9c-7 0-12.8 5.7-12.8 12.8s5.7 12.8 12.8 12.8 12.8-5.8 12.8-12.8-5.8-12.8-12.8-12.8zm0 21c-4.5 0-8.2-3.7-8.2-8.2s3.7-8.2 8.2-8.2 8.2 3.7 8.2 8.2-3.7 8.2-8.2 8.2z"/>
            <circle cx="38.1" cy="11.6" r="2.9"/>
            <path d="m45.6 4.1c-2.6-2.7-6.3-4.1-10.5-4.1h-20.6c-8.7 0-14.5 5.8-14.5 14.5v20.5c0 4.3 1.4 8 4.2 10.7 2.7 2.6 6.3 3.9 10.4 3.9h20.4c4.3 0 7.9-1.4 10.5-3.9 2.7-2.6 4.1-6.3 4.1-10.6v-20.6c0-4.2-1.4-7.8-4-10.4zm-.4 31c0 3.1-1.1 5.6-2.9 7.3s-4.3 2.6-7.3 2.6h-20.4c-3 0-5.5-.9-7.3-2.6-1.8-1.8-2.7-4.3-2.7-7.4v-20.5c0-3 .9-5.5 2.7-7.3 1.7-1.7 4.3-2.6 7.3-2.6h20.6c3 0 5.5.9 7.3 2.7 1.7 1.8 2.7 4.3 2.7 7.2z"/>
        </g>
    </symbol>

    <symbol id="iconSoc-tg" viewBox="0 0 69.5 57.6">
        <g>
            <path d="m4.78 24.8c18.66-8.13 31.1-13.49 37.32-16.08 17.78-7.39 21.47-8.68 23.88-8.72.53-.01 1.71.12 2.48.74.64.53.82 1.24.91 1.73.08.5.19 1.63.1 2.52-.96 10.12-5.13 34.68-7.25 46.01-.89 4.8-2.66 6.4-4.37 6.56-3.72.34-6.54-2.46-10.14-4.82-5.63-3.69-8.81-5.99-14.28-9.59-6.32-4.16-2.22-6.45 1.38-10.19.94-.98 17.32-15.87 17.63-17.22.04-.17.08-.8-.3-1.13-.37-.33-.92-.22-1.32-.13-.57.13-9.56 6.08-27 17.84-2.55 1.75-4.86 2.61-6.94 2.56-2.28-.05-6.68-1.29-9.95-2.35-4-1.3-7.19-1.99-6.91-4.21.14-1.14 1.73-2.32 4.76-3.52z" fill="#fff"/>
        </g>
    </symbol>

    <symbol id="iconEmail" viewBox="0 0 22 18">
        <g>
            <path d="m19 18h-16c-1.7 0-3-1.3-3-3v-12c0-1.7 1.3-3 3-3h16c1.7 0 3 1.3 3 3v12c0 1.7-1.3 3-3 3zm-16-16c-.6 0-1 .4-1 1v12c0 .6.4 1 1 1h16c.6 0 1-.4 1-1v-12c0-.6-.4-1-1-1z"/>
            <path d="m11 11c-.2 0-.4-.1-.6-.2l-10-7c-.4-.3-.5-.9-.2-1.4.3-.4.9-.5 1.4-.2l9.4 6.6 9.4-6.6c.5-.3 1.1-.2 1.4.2.3.5.2 1.1-.2 1.4l-10 7c-.2.1-.4.2-.6.2z"/>
        </g>
    </symbol>

    <symbol id="iconAddress" viewBox="0 0 304 402.2">
        <g>
            <path d="m152 402.2c-2.6 0-5.1-.7-7.3-1.9-89.4-49.9-144.7-144.2-144.7-246.5 0-2.1 0-4.1.1-6.1 1-45.5 17.9-83.8 49-110.8 27.4-23.8 64-36.9 102.9-36.9s75.5 13.1 102.9 36.9c31.1 27 48.1 65.3 49 110.8 0 2 .1 4.1.1 6.1 0 51-13.8 101.1-40 144.9-25.4 42.4-61.5 77.4-104.7 101.6-2.2 1.2-4.7 1.9-7.3 1.9zm0-372.2c-31.7 0-61.3 10.5-83.2 29.6-24.5 21.3-37.9 51.9-38.7 88.7 0 1.8-.1 3.7-.1 5.5 0 88.4 46.3 170.4 122 216 35.4-21.4 65-51.1 86.3-86.6 23.4-39.1 35.7-83.8 35.7-129.4 0-1.8 0-3.7-.1-5.5-.8-36.8-14.2-67.5-38.7-88.7-21.9-19.1-51.5-29.6-83.2-29.6z"/>
            <path d="m152.4 248.6c-52.1 0-94.3-42.2-94.3-94.3s42.2-94.3 94.3-94.3 94.3 42.2 94.3 94.3c0 52-42.2 94.2-94.3 94.3zm0-158.6c-35.5 0-64.3 28.8-64.3 64.3s28.8 64.3 64.3 64.3 64.3-28.8 64.3-64.3c-.1-35.5-28.8-64.3-64.3-64.3z"/>
        </g>
    </symbol>

    <symbol id="buttonIcon-cart" viewBox="0 0 20 20">
        <g>
            <path clip-rule="evenodd" d="m6 16c-1.1 0-2 .9-2 2s.9 2 2 2 2-.9 2-2-.9-2-2-2zm-6-16v2h2l3.6 7.6-1.4 2.4c-.1.3-.2.7-.2 1 0 1.1.9 2 2 2h12v-2h-11.6c-.1 0-.2-.1-.2-.2v-.1l.9-1.7h7.4c.8 0 1.4-.4 1.7-1l3.6-6.5c.2-.2.2-.3.2-.5 0-.6-.4-1-1-1h-14.8l-.9-2zm16 16c-1.1 0-2 .9-2 2s.9 2 2 2 2-.9 2-2-.9-2-2-2z" fill-rule="evenodd"/>
        </g>
    </symbol>

    <symbol id="buttonIcon-contact" viewBox="0 0 22 18">
        <g>
            <path d="m19 18h-16c-1.7 0-3-1.3-3-3v-12c0-1.7 1.3-3 3-3h16c1.7 0 3 1.3 3 3v12c0 1.7-1.3 3-3 3zm-16-16c-.6 0-1 .4-1 1v12c0 .6.4 1 1 1h16c.6 0 1-.4 1-1v-12c0-.6-.4-1-1-1z"/>
            <path d="m11 11c-.2 0-.4-.1-.6-.2l-10-7c-.4-.3-.5-.9-.2-1.4.3-.4.9-.5 1.4-.2l9.4 6.6 9.4-6.6c.5-.3 1.1-.2 1.4.2.3.5.2 1.1-.2 1.4l-10 7c-.2.1-.4.2-.6.2z"/>
        </g>
    </symbol>

    <symbol id="buttonIcon-login" viewBox="0 0 20 20">
        <g>
            <ellipse cx="10" cy="6" rx="5" ry="6"/>
            <path d="m19.8 17.1c-.9-1.8-2.6-3.3-4.8-4.2-.6-.2-1.3-.2-1.8.1-1 .6-2 .9-3.2.9s-2.2-.3-3.2-.9c-.5-.2-1.2-.3-1.8 0-2.2.9-3.9 2.4-4.8 4.2-.7 1.3.4 2.8 1.9 2.8h15.8c1.5 0 2.6-1.5 1.9-2.9z"/>
        </g>
    </symbol>

    <symbol id="buttonIcon-bottle" viewBox="0 0 29 48.6">
        <g>
            <path d="m16.5 48.6c-.4 0-.7 0-1.1-.1-1.2-.3-2.2-.9-2.9-1.9-1 .4-2.1.4-3.2.1s-2-.9-2.6-1.8c-1.1.4-2.3.4-3.4 0-2.5-.9-3.9-3.6-3.1-6.3l7.2-24.8c1.8-5.8 7.9-9.1 13.7-7.4s9.2 7.8 7.5 13.6l-7.2 24.8c-.7 2.3-2.8 3.8-4.9 3.8zm-1-5.3c-.1.4 0 .6.1.8s.3.4.6.5c.5.1 1.1-.3 1.2-.9l7.2-24.8c1.1-3.7-1.1-7.6-4.8-8.7s-7.6 1.1-8.7 4.8l-7 24.8c-.2.6.1 1.2.6 1.4.4.1.6 0 .8-.1.1-.1.4-.2.5-.6.3-1.1 1.4-1.7 2.5-1.4s1.7 1.4 1.4 2.5c-.1.3 0 .6.1.8.1.1.3.4.6.5.4.1.6 0 .8-.1.1-.1.4-.3.5-.6.3-1.1 1.4-1.7 2.5-1.4.8.3 1.4 1.4 1.1 2.5z"/>
            <path d="m22.7 10.9c-.4 0-.8-.1-1.2-.2l-3.1-.9c-2.3-.7-3.7-3.1-3-5.5l.3-1.2c.3-1.1 1.1-2.1 2.1-2.6 1-.6 2.2-.7 3.3-.4l3.1.9c1.1.3 2.1 1.1 2.6 2.1.6 1 .7 2.2.4 3.3l-.2 1.3c-.6 1.9-2.3 3.2-4.3 3.2zm-2.7-6.9c-.1 0-.1 0-.2 0s-.2.1-.2.2l-.3 1.2c-.1.2.1.4.3.5l3.1.9c.2.1.4-.1.5-.3l.3-1.2c0-.1 0-.2 0-.3s-.1-.2-.2-.2l-3.2-.8z"/>
            <path d="m24.4 29.1c-.2 0-.4 0-.6-.1l-17.2-5c-1.1-.3-1.7-1.4-1.4-2.5s1.4-1.7 2.5-1.4l17.3 5c1.1.3 1.7 1.4 1.4 2.5-.3 1-1.1 1.5-2 1.5z"/>
            <path d="m21.3 39.7c-.2 0-.4 0-.6-.1l-17.3-5c-1.1-.3-1.7-1.4-1.4-2.5s1.4-1.7 2.5-1.4l17.3 5c1.1.3 1.7 1.4 1.4 2.5-.2.9-1 1.5-1.9 1.5z"/>
        </g>
    </symbol>

    <symbol id="iconStar" viewBox="0 0 32 32">
        <g>
            <polygon points="22.1,19.6 32,12 20,12 16,0 12,12 0,12 9.9,19.6 6,32 16,24.3 26,32 		"/>
        </g>
    </symbol>

</svg>
