<svg version="1.1" id="Layer_1" xmlns="http://www.w3.org/2000/svg" xmlns:xlink="http://www.w3.org/1999/xlink" x="0px" y="0px"
	 viewBox="0 0 64 58.1" style="enable-background:new 0 0 64 58.1;" xml:space="preserve">
<style type="text/css">
	.st0{fill:#241F20;}
</style>
	<path class="st0" d="M63.7,17.8l-1.2-1.5c-0.1,0-0.1-0.1-0.2-0.2c-1-1.1-6.5-2.4-8.4-7.8c-1.8-5.2-4.5-7.9-4.7-8.1
	c-1.1-0.7-1.9,1-2.2,1.7L47,2.3l0,0l-2.9,8.6c-1.4,4.1-4,2.7-4,2.7l0,0c-5.9-2.6-13.2-1.8-18.8,2.7c-5.3,4.4-7.6,11-6.5,17.2
	c0,0.1,0,0.1,0,0.2c0.4,2.8-1.1,3.5-1.8,3.7l-0.4,0h0L2.2,38.7l0,0l-0.7,0.1c-0.9,0.2-2.2,0.7-0.8,2.5L1.2,42c0.4,0.4,1.8,2,4.3,2.9
	c2.8,1,2.2,5.1,5,8.5l3.3,4c0,0,1.7,1.8,2.9-1l4-9.5c0.3-0.6,1.3-1.8,3.8-0.9c0,0,0.1,0,0.1,0c5.9,2.5,13,1.6,18.5-2.8
	c5.8-4.8,8-12.2,6.1-18.8l0,0c0,0-1-2,3.5-2.9l9.6-2C63.4,19.2,64.4,18.7,63.7,17.8z M20.5,39.4c-4.8-5.9-4-14.6,1.8-20
	c-1.2,4.7-2.7,15.7,7.3,24.9C26.1,43.9,22.8,42.3,20.5,39.4z M42.8,39.3c0.1-3.8-1.1-12.9-7.7-23.8c3.2,0.6,6.3,2.2,8.5,4.9
	C48.2,25.9,47.7,34,42.8,39.3z"/>
</svg>
