<?xml version="1.0" encoding="utf-8"?>
<!-- Generator: Adobe Illustrator 26.0.2, SVG Export Plug-In . SVG Version: 6.00 Build 0)  -->
<svg version="1.1" id="Layer_1" xmlns="http://www.w3.org/2000/svg" xmlns:xlink="http://www.w3.org/1999/xlink" x="0px" y="0px"
	 viewBox="0 0 477 477" style="enable-background:new 0 0 477 477;" xml:space="preserve">
<style type="text/css">
	.st0{fill:#224A30;}
	.st1{fill:#F8A618;}
</style>
<g>
	<path class="st0" d="M238.5,476.5c-63.57,0-123.34-24.76-168.29-69.71C25.26,361.84,0.5,302.07,0.5,238.5S25.26,115.16,70.21,70.21
		S174.93,0.5,238.5,0.5s123.34,24.76,168.29,69.71c44.95,44.95,69.71,104.72,69.71,168.29s-24.76,123.34-69.71,168.29
		C361.84,451.74,302.07,476.5,238.5,476.5z"/>
	<path d="M238.5,1c32.06,0,63.17,6.28,92.45,18.66c28.28,11.96,53.68,29.09,75.49,50.9c21.81,21.81,38.94,47.21,50.9,75.49
		C469.72,175.33,476,206.44,476,238.5s-6.28,63.17-18.66,92.45c-11.96,28.28-29.09,53.68-50.9,75.49
		c-21.81,21.81-47.21,38.94-75.49,50.9C301.67,469.72,270.56,476,238.5,476s-63.17-6.28-92.45-18.66
		c-28.28-11.96-53.68-29.09-75.49-50.9c-21.81-21.81-38.94-47.21-50.9-75.49C7.28,301.67,1,270.56,1,238.5s6.28-63.17,18.66-92.45
		c11.96-28.28,29.09-53.68,50.9-75.49c21.81-21.81,47.21-38.94,75.49-50.9C175.33,7.28,206.44,1,238.5,1 M238.5,0
		C106.78,0,0,106.78,0,238.5S106.78,477,238.5,477S477,370.22,477,238.5S370.22,0,238.5,0L238.5,0z"/>
</g>
<g>
	<path class="st1" d="M207.45,255.2c-12.99,0.29-19.48,5.86-19.48,16.7v62.4c0,8.3-0.91,14.19-2.73,17.65
		c-1.82,3.47-3.12,5.2-3.9,5.2h-50.94c4.39-6.35,6.59-15.77,6.59-28.27v-53.32c0-11.33,3.15-19.97,9.45-25.93
		c6.3-5.96,17.11-10.2,32.45-12.74v-0.29c-27.74-1.46-41.6-14.36-41.6-38.67v-50.24c0-12.4-2.2-21.68-6.59-27.83h50.94
		c1.47,0.59,2.94,2.71,4.42,6.37c1.47,3.66,2.21,9.06,2.21,16.19v59.03c0,10.84,6.4,16.46,19.19,16.85v-98.44h61.82v98.44
		c12.99-0.39,19.48-6.01,19.48-16.85v-59.03c0-8.2,0.88-14.01,2.65-17.43c1.77-3.42,3.09-5.13,3.98-5.13h50.94
		c-4.39,6.15-6.59,15.43-6.59,27.83v50.24c0,24.32-13.92,37.21-41.75,38.67v0.29c15.33,2.54,26.17,6.79,32.52,12.74
		c6.35,5.96,9.52,14.6,9.52,25.93v53.32c0,12.5,2.2,21.92,6.59,28.27h-50.94c-1.57-0.68-3.07-2.88-4.49-6.59
		c-1.42-3.71-2.14-9.13-2.14-16.26v-62.4c0-10.84-6.59-16.41-19.78-16.7v101.95h-61.82V255.2z"/>
</g>
</svg>
